<svg width="28" height="28" viewBox="0 0 300 28" fill="none" xmlns="http://www.w3.org/2000/svg">

<path d="M125.066 15.8831C124.485 20.1798 126.617 24.4854 130.402 26.6292C131.502 27.2539 132.683 27.6719 133.918 27.8787C133.021 26.1978 132.327 24.2382 132.656 20.5618C132.976 17.8427 131.989 15.2809 129.862 14.7326C128.397 14.3551 126.824 14.7326 125.062 15.8831H125.066ZM126.369 12.0405C126.148 12.4315 125.95 12.836 125.779 13.2539C127.455 12.3955 129.424 12.2787 130.673 12.5888C133.638 13.3258 135.518 16.2067 135.044 20.4315C134.553 24.8225 135.946 27.3978 136.423 28C140.038 27.7528 143.247 25.7483 145.036 22.6067C146.433 20.1528 146.802 17.3034 146.072 14.5753C145.311 14.1034 143.314 13.0562 140.394 12.9393C140.096 12.9303 133.179 12.6652 131.322 7.55506C129.217 8.48989 127.509 10.0315 126.369 12.0405ZM144.563 11.2809C143.648 9.94157 142.435 8.82697 141.002 8.01348C138.74 6.73259 136.117 6.3191 133.575 6.83146C134.986 10.3371 140.416 10.5663 140.475 10.5663C142.246 10.6382 143.612 10.8764 144.563 11.2764V11.2809Z" fill="#C8FF00"/>
<defs>
<clipPath id="clip0_448_9208">
<rect width="28" height="28" fill="white"/>
</clipPath>
</defs>
</svg>
