<svg width="210" height="28" viewBox="0 0 210 28" fill="none" xmlns="http://www.w3.org/2000/svg">
<g clip-path="url(#clip0_448_9208)">
<path d="M0 5.42023V0H23.3989V5.42023H15.0029V27.6045H8.40505V5.42023H0Z" fill="white"/>
<path d="M42.0118 18.845V17.2C42.0118 15.5011 41.7639 13.9955 41.2682 12.6787C40.7724 11.3618 40.0784 10.2562 39.1861 9.35732C38.2937 8.45845 37.2347 7.7798 36.0088 7.32137C34.783 6.86294 33.431 6.63373 31.9528 6.63373C29.8616 6.63373 28.0454 7.08317 26.5041 7.97755C24.9628 8.87193 23.7686 10.1214 22.9213 11.7259C22.074 13.3304 21.6504 15.2 21.6504 17.3393C21.6504 19.4787 22.0695 21.4382 22.9123 23.0337C23.755 24.6292 24.9628 25.8562 26.5357 26.7146C28.1085 27.5731 29.9788 28 32.1511 28C33.9628 28 35.5582 27.7259 36.9372 27.1731C38.3163 26.6202 39.4294 25.8427 40.2812 24.8405C41.133 23.8382 41.6828 22.6607 41.9352 21.3034L35.8646 21.1281C35.6934 21.5865 35.4365 21.9731 35.094 22.2877C34.7514 22.6023 34.3413 22.8405 33.8636 23.0023C33.3859 23.1641 32.8541 23.245 32.2682 23.245C31.421 23.245 30.6909 23.0697 30.078 22.7191C29.4651 22.3686 28.9918 21.8787 28.6584 21.245C28.3249 20.6113 28.1581 19.8742 28.1581 19.0292V18.854H41.9983L42.0118 18.845ZM30.105 11.8832C30.6909 11.5551 31.3534 11.3933 32.0925 11.3933C32.8316 11.3933 33.467 11.5461 34.0304 11.8562C34.5937 12.1663 35.0354 12.5933 35.3644 13.1416C35.6888 13.6899 35.8556 14.3146 35.8646 15.0157H28.1806C28.2122 14.3506 28.3879 13.7483 28.7124 13.218C29.0549 12.6562 29.5191 12.2113 30.105 11.8832Z" fill="white"/>
<path d="M52.0123 15.7977V27.6045H45.4009V6.90335H51.6878V10.7056H51.9176C52.3773 9.43818 53.1615 8.44493 54.2701 7.72133C55.3788 6.99773 56.6992 6.63818 58.2315 6.63818C59.7638 6.63818 60.9581 6.96627 62.0352 7.61346C63.1123 8.26515 63.9506 9.17301 64.55 10.3371C65.1494 11.5011 65.4423 12.8584 65.4378 14.4135V27.609H58.8264V15.7078C58.8354 14.5573 58.5425 13.6584 57.9566 13.0112C57.3662 12.364 56.5505 12.0404 55.505 12.0404C54.8109 12.0404 54.198 12.1887 53.6752 12.4944C53.1479 12.7955 52.7423 13.2225 52.4584 13.7798C52.1745 14.3371 52.0258 15.0112 52.0168 15.8022L52.0123 15.7977Z" fill="white"/>
<path d="M69.5479 27.6045V6.90338H76.1592V27.6045H69.5479Z" fill="white"/>
<path d="M98.472 13.2225L92.4014 13.3843C92.3383 12.9528 92.1671 12.5708 91.8876 12.2337C91.6082 11.8967 91.2477 11.6315 90.8015 11.4382C90.3553 11.245 89.8416 11.1506 89.2557 11.1506C88.4896 11.1506 87.8406 11.3034 87.3043 11.609C86.768 11.9146 86.5066 12.3281 86.5156 12.8495C86.5066 13.254 86.6734 13.6045 87.0114 13.9011C87.3494 14.1978 87.9533 14.436 88.8276 14.6158L92.8295 15.3708C94.9026 15.7663 96.4439 16.4225 97.458 17.3394C98.472 18.2562 98.9812 19.4697 98.9902 20.9798C98.9812 22.4 98.5621 23.636 97.7284 24.6877C96.8946 25.7394 95.7589 26.5528 94.3168 27.1326C92.8746 27.7124 91.2252 28 89.3684 28C86.403 28 84.0685 27.3933 82.3604 26.1753C80.6524 24.9573 79.6789 23.3259 79.4355 21.2764L85.9658 21.1146C86.11 21.8697 86.4841 22.445 87.088 22.8405C87.6919 23.236 88.4625 23.4337 89.3999 23.4337C90.2472 23.4337 90.9367 23.2764 91.4685 22.9618C92.0003 22.6472 92.2707 22.2292 92.2797 21.7079C92.2707 21.2405 92.0634 20.8674 91.6578 20.5843C91.2522 20.3011 90.6167 20.0809 89.7514 19.9191L86.128 19.2315C84.0459 18.854 82.4956 18.1528 81.4771 17.1371C80.4586 16.1169 79.9538 14.818 79.9628 13.236C79.9538 11.8517 80.3234 10.6697 81.0715 9.68542C81.8196 8.70115 82.8832 7.95059 84.2623 7.42924C85.6413 6.90789 87.2682 6.64722 89.143 6.64722C91.9552 6.64722 94.1725 7.23149 95.795 8.40452C97.4174 9.57755 98.3142 11.1865 98.4855 13.236L98.472 13.2225Z" fill="white"/>
<path d="M122.534 4.5618C121.713 3.12809 120.551 2.00899 119.041 1.20449C117.531 0.4 115.742 0 113.669 0H102.235V27.6045H108.928V19.0292H113.471C115.589 19.0292 117.419 18.6382 118.96 17.8562C120.501 17.0742 121.686 15.973 122.52 14.5483C123.354 13.1236 123.768 11.4607 123.768 9.55506C123.768 7.64944 123.358 5.99551 122.538 4.5618H122.534ZM116.301 11.7753C115.949 12.409 115.436 12.8989 114.755 13.2494C114.075 13.6 113.232 13.7753 112.222 13.7753H108.923V5.37978H112.222C113.223 5.37978 114.066 5.55056 114.751 5.89214C115.436 6.23371 115.954 6.71461 116.305 7.33933C116.657 7.96405 116.833 8.70112 116.833 9.55506C116.833 10.409 116.657 11.1371 116.305 11.7708H116.301V11.7753Z" fill="white"/>
<path d="M149.024 27.6045V6.90335H155.446V10.6786H155.662C156.041 9.31234 156.658 8.2966 157.515 7.62694C158.371 6.95728 159.367 6.62469 160.503 6.62469C160.809 6.62469 161.124 6.64717 161.449 6.68762C161.773 6.72807 162.075 6.78649 162.355 6.87189V12.6022C162.039 12.4944 161.629 12.409 161.12 12.346C160.611 12.2831 160.16 12.2517 159.763 12.2517C158.979 12.2517 158.276 12.4269 157.65 12.773C157.023 13.1191 156.532 13.6 156.176 14.2157C155.82 14.8314 155.64 15.5505 155.64 16.3775V27.618H149.028V27.6045H149.024Z" fill="white"/>
<path d="M177.101 22.5528C176.957 22.5888 176.745 22.6337 176.461 22.6832C176.177 22.7326 175.907 22.7596 175.659 22.7596C175.307 22.7596 175.005 22.7056 174.753 22.6023C174.501 22.4989 174.307 22.3236 174.176 22.0764C174.046 21.8292 173.982 21.5011 173.982 21.1011V11.7528H177.728V6.90339H173.982V1.94159H167.371V6.90339H164.626V11.7573H167.371V21.8292C167.353 23.2315 167.632 24.3955 168.214 25.3214C168.795 26.2472 169.638 26.9259 170.742 27.3618C171.846 27.7978 173.171 27.982 174.722 27.9101C175.515 27.8742 176.195 27.7888 176.768 27.654C177.34 27.5191 177.782 27.4068 178.097 27.3169L177.097 22.5573H177.101V22.5528Z" fill="white"/>
<path d="M186.953 27.9551C185.628 27.9551 184.456 27.7348 183.433 27.2899C182.41 26.845 181.603 26.1708 181.013 25.2674C180.422 24.3641 180.125 23.2315 180.125 21.8652C180.125 20.7146 180.328 19.7438 180.733 18.9528C181.139 18.1618 181.698 17.5191 182.41 17.0247C183.122 16.5304 183.942 16.1573 184.871 15.9011C185.799 15.645 186.79 15.4742 187.845 15.3798C189.026 15.2719 189.977 15.1596 190.698 15.0382C191.419 14.9169 191.942 14.7416 192.271 14.5124C192.6 14.2832 192.762 13.9596 192.762 13.5371V13.4697C192.762 12.7775 192.523 12.2427 192.045 11.8652C191.568 11.4877 190.923 11.2989 190.112 11.2989C189.238 11.2989 188.535 11.4877 188.003 11.8652C187.471 12.2427 187.133 12.7641 186.989 13.4292L180.891 13.2135C181.071 11.9551 181.54 10.8315 182.288 9.83822C183.041 8.84496 184.077 8.06294 185.398 7.49215C186.718 6.92137 188.305 6.63373 190.161 6.63373C191.486 6.63373 192.708 6.79103 193.825 7.10114C194.943 7.41126 195.917 7.86069 196.746 8.44946C197.575 9.03822 198.215 9.75732 198.67 10.6113C199.125 11.4652 199.351 12.4405 199.351 13.5371V27.609H193.131V24.7236H192.969C192.6 25.4247 192.131 26.018 191.559 26.5034C190.986 26.9888 190.315 27.3528 189.544 27.5955C188.773 27.8382 187.908 27.9596 186.944 27.9596H186.953V27.9551ZM188.994 23.636C189.706 23.636 190.346 23.4922 190.919 23.2045C191.491 22.9169 191.946 22.5169 192.289 22.009C192.631 21.5011 192.802 20.9124 192.802 20.2382V18.2697C192.613 18.3686 192.388 18.4584 192.122 18.5393C191.856 18.6202 191.568 18.6966 191.252 18.7686C190.937 18.8405 190.612 18.9034 190.279 18.9573C189.945 19.0113 189.625 19.0607 189.319 19.1056C188.697 19.2045 188.165 19.3573 187.732 19.5641C187.295 19.7708 186.962 20.036 186.732 20.3641C186.502 20.6922 186.389 21.0787 186.389 21.5281C186.389 22.2113 186.633 22.7326 187.124 23.0922C187.615 23.4517 188.237 23.6315 188.994 23.6315V23.636Z" fill="white"/>
<path d="M210 0V27.6045H203.389V0H210Z" fill="white"/>
<path d="M125.066 15.8831C124.485 20.1798 126.617 24.4854 130.402 26.6292C131.502 27.2539 132.683 27.6719 133.918 27.8787C133.021 26.1978 132.327 24.2382 132.656 20.5618C132.976 17.8427 131.989 15.2809 129.862 14.7326C128.397 14.3551 126.824 14.7326 125.062 15.8831H125.066ZM126.369 12.0405C126.148 12.4315 125.95 12.836 125.779 13.2539C127.455 12.3955 129.424 12.2787 130.673 12.5888C133.638 13.3258 135.518 16.2067 135.044 20.4315C134.553 24.8225 135.946 27.3978 136.423 28C140.038 27.7528 143.247 25.7483 145.036 22.6067C146.433 20.1528 146.802 17.3034 146.072 14.5753C145.311 14.1034 143.314 13.0562 140.394 12.9393C140.096 12.9303 133.179 12.6652 131.322 7.55506C129.217 8.48989 127.509 10.0315 126.369 12.0405ZM144.563 11.2809C143.648 9.94157 142.435 8.82697 141.002 8.01348C138.74 6.73259 136.117 6.3191 133.575 6.83146C134.986 10.3371 140.416 10.5663 140.475 10.5663C142.246 10.6382 143.612 10.8764 144.563 11.2764V11.2809Z" fill="#C8FF00"/>
</g>
<defs>
<clipPath id="clip0_448_9208">
<rect width="210" height="28" fill="white"/>
</clipPath>
</defs>
</svg>
